<?xml version="1.0" encoding="UTF-8" standalone="no"?>
<!DOCTYPE svg PUBLIC "-//W3C//DTD SVG 1.1//EN"
 "http://www.w3.org/Graphics/SVG/1.1/DTD/svg11.dtd">
<!-- Generated by graphviz version 2.38.0 (20140413.2041)
 -->
<!-- Title: models_diagram Pages: 1 -->
<svg width="1180pt" height="303pt"
 viewBox="0.00 0.00 1180.00 303.00" xmlns="http://www.w3.org/2000/svg" xmlns:xlink="http://www.w3.org/1999/xlink">
<g id="graph0" class="graph" transform="scale(1 1) rotate(0) translate(4 299)">
<title>models_diagram</title>
<polygon fill="none" stroke="none" points="-4,4 -4,-299 1176,-299 1176,4 -4,4"/>
<!-- _diagram_info -->
<g id="node1" class="node"><title>_diagram_info</title>
<text text-anchor="start" x="8" y="-258.6" font-family="Times,serif" font-size="13.00">Models diagram</text>
<text text-anchor="start" x="8" y="-244.6" font-family="Times,serif" font-size="13.00">Date: Aug 31 2017 &#45; 12:07</text>
<text text-anchor="start" x="8" y="-230.6" font-family="Times,serif" font-size="13.00">Migration version: 20170831145340</text>
<text text-anchor="start" x="8" y="-216.6" font-family="Times,serif" font-size="13.00">Generated by RailRoady 1.5.3</text>
<text text-anchor="start" x="8" y="-202.6" font-family="Times,serif" font-size="13.00">http://railroady.prestonlee.com</text>
</g>
<!-- Usuario -->
<g id="node2" class="node"><title>Usuario</title>
<path fill="none" stroke="black" d="M244,-181C244,-181 464,-181 464,-181 470,-181 476,-187 476,-193 476,-193 476,-275 476,-275 476,-281 470,-287 464,-287 464,-287 244,-287 244,-287 238,-287 232,-281 232,-275 232,-275 232,-193 232,-193 232,-187 238,-181 244,-181"/>
<text text-anchor="middle" x="354" y="-271.8" font-family="Times,serif" font-size="14.00">Usuario</text>
<polyline fill="none" stroke="black" points="232,-264 476,-264 "/>
<text text-anchor="start" x="240" y="-248.8" font-family="Times,serif" font-size="14.00">id :integer</text>
<text text-anchor="start" x="240" y="-233.8" font-family="Times,serif" font-size="14.00">name :character varying</text>
<text text-anchor="start" x="240" y="-218.8" font-family="Times,serif" font-size="14.00">email :character varying</text>
<text text-anchor="start" x="240" y="-203.8" font-family="Times,serif" font-size="14.00">created_at :timestamp without time zone</text>
<text text-anchor="start" x="240" y="-188.8" font-family="Times,serif" font-size="14.00">updated_at :timestamp without time zone</text>
</g>
<!-- ApplicationRecord -->
<g id="node3" class="node"><title>ApplicationRecord</title>
<ellipse fill="none" stroke="black" cx="571" cy="-234" rx="77.1866" ry="18"/>
<text text-anchor="middle" x="571" y="-230.3" font-family="Times,serif" font-size="14.00">ApplicationRecord</text>
</g>
<!-- Categorium -->
<g id="node4" class="node"><title>Categorium</title>
<path fill="none" stroke="black" d="M678,-188.5C678,-188.5 898,-188.5 898,-188.5 904,-188.5 910,-194.5 910,-200.5 910,-200.5 910,-267.5 910,-267.5 910,-273.5 904,-279.5 898,-279.5 898,-279.5 678,-279.5 678,-279.5 672,-279.5 666,-273.5 666,-267.5 666,-267.5 666,-200.5 666,-200.5 666,-194.5 672,-188.5 678,-188.5"/>
<text text-anchor="middle" x="788" y="-264.3" font-family="Times,serif" font-size="14.00">Categorium</text>
<polyline fill="none" stroke="black" points="666,-256.5 910,-256.5 "/>
<text text-anchor="start" x="674" y="-241.3" font-family="Times,serif" font-size="14.00">id :integer</text>
<text text-anchor="start" x="674" y="-226.3" font-family="Times,serif" font-size="14.00">name :character varying</text>
<text text-anchor="start" x="674" y="-211.3" font-family="Times,serif" font-size="14.00">created_at :timestamp without time zone</text>
<text text-anchor="start" x="674" y="-196.3" font-family="Times,serif" font-size="14.00">updated_at :timestamp without time zone</text>
</g>
<!-- Item -->
<g id="node6" class="node"><title>Item</title>
<path fill="none" stroke="black" d="M809,-0.5C809,-0.5 1029,-0.5 1029,-0.5 1035,-0.5 1041,-6.5 1041,-12.5 1041,-12.5 1041,-124.5 1041,-124.5 1041,-130.5 1035,-136.5 1029,-136.5 1029,-136.5 809,-136.5 809,-136.5 803,-136.5 797,-130.5 797,-124.5 797,-124.5 797,-12.5 797,-12.5 797,-6.5 803,-0.5 809,-0.5"/>
<text text-anchor="middle" x="919" y="-121.3" font-family="Times,serif" font-size="14.00">Item</text>
<polyline fill="none" stroke="black" points="797,-113.5 1041,-113.5 "/>
<text text-anchor="start" x="805" y="-98.3" font-family="Times,serif" font-size="14.00">id :integer</text>
<text text-anchor="start" x="805" y="-83.3" font-family="Times,serif" font-size="14.00">name :character varying</text>
<text text-anchor="start" x="805" y="-68.3" font-family="Times,serif" font-size="14.00">size :integer</text>
<text text-anchor="start" x="805" y="-53.3" font-family="Times,serif" font-size="14.00">categoria_id :integer</text>
<text text-anchor="start" x="805" y="-38.3" font-family="Times,serif" font-size="14.00">created_at :timestamp without time zone</text>
<text text-anchor="start" x="805" y="-23.3" font-family="Times,serif" font-size="14.00">updated_at :timestamp without time zone</text>
<text text-anchor="start" x="805" y="-8.3" font-family="Times,serif" font-size="14.00">user_id :integer</text>
</g>
<!-- Categorium&#45;&gt;Item -->
<g id="edge1" class="edge"><title>Categorium&#45;&gt;Item</title>
<path fill="none" stroke="#2f2b78" d="M828.993,-181.837C838.52,-169.947 848.855,-157.048 859.012,-144.371"/>
<ellipse fill="none" stroke="#2f2b78" cx="826.297" cy="-185.201" rx="4.00002" ry="4.00002"/>
<polygon fill="#2f2b78" stroke="#2f2b78" points="859.051,-144.322 868.816,-139.331 862.177,-140.42 865.304,-136.518 865.304,-136.518 865.304,-136.518 862.177,-140.42 861.792,-133.704 859.051,-144.322 859.051,-144.322"/>
</g>
<!-- User -->
<g id="node5" class="node"><title>User</title>
<path fill="none" stroke="black" d="M940,-173.5C940,-173.5 1160,-173.5 1160,-173.5 1166,-173.5 1172,-179.5 1172,-185.5 1172,-185.5 1172,-282.5 1172,-282.5 1172,-288.5 1166,-294.5 1160,-294.5 1160,-294.5 940,-294.5 940,-294.5 934,-294.5 928,-288.5 928,-282.5 928,-282.5 928,-185.5 928,-185.5 928,-179.5 934,-173.5 940,-173.5"/>
<text text-anchor="middle" x="1050" y="-279.3" font-family="Times,serif" font-size="14.00">User</text>
<polyline fill="none" stroke="black" points="928,-271.5 1172,-271.5 "/>
<text text-anchor="start" x="936" y="-256.3" font-family="Times,serif" font-size="14.00">id :integer</text>
<text text-anchor="start" x="936" y="-241.3" font-family="Times,serif" font-size="14.00">username :character varying</text>
<text text-anchor="start" x="936" y="-226.3" font-family="Times,serif" font-size="14.00">name :character varying</text>
<text text-anchor="start" x="936" y="-211.3" font-family="Times,serif" font-size="14.00">email :character varying</text>
<text text-anchor="start" x="936" y="-196.3" font-family="Times,serif" font-size="14.00">created_at :timestamp without time zone</text>
<text text-anchor="start" x="936" y="-181.3" font-family="Times,serif" font-size="14.00">updated_at :timestamp without time zone</text>
</g>
<!-- User&#45;&gt;Item -->
<g id="edge2" class="edge"><title>User&#45;&gt;Item</title>
<path fill="none" stroke="#3c5b22" d="M996.801,-166.603C990.985,-159.344 985.035,-151.918 979.143,-144.564"/>
<ellipse fill="none" stroke="#3c5b22" cx="999.463" cy="-169.925" rx="4.00002" ry="4.00002"/>
<polygon fill="#3c5b22" stroke="#3c5b22" points="979.035,-144.429 976.294,-133.811 975.908,-140.527 972.782,-136.625 972.782,-136.625 972.782,-136.625 975.908,-140.527 969.27,-139.438 979.035,-144.429 979.035,-144.429"/>
</g>
</g>
</svg>
