<?xml version="1.0" encoding="UTF-8" standalone="no"?>
<!DOCTYPE svg PUBLIC "-//W3C//DTD SVG 1.1//EN"
 "http://www.w3.org/Graphics/SVG/1.1/DTD/svg11.dtd">
<!-- Generated by graphviz version 2.38.0 (20140413.2041)
 -->
<!-- Title: models_diagram Pages: 1 -->
<svg width="685pt" height="158pt"
 viewBox="0.00 0.00 685.30 158.00" xmlns="http://www.w3.org/2000/svg" xmlns:xlink="http://www.w3.org/1999/xlink">
<g id="graph0" class="graph" transform="scale(1 1) rotate(0) translate(4 154)">
<title>models_diagram</title>
<polygon fill="none" stroke="none" points="-4,4 -4,-154 681.298,-154 681.298,4 -4,4"/>
<!-- _diagram_info -->
<g id="node1" class="node"><title>_diagram_info</title>
<text text-anchor="start" x="8" y="-135.6" font-family="Times,serif" font-size="13.00">Models diagram</text>
<text text-anchor="start" x="8" y="-121.6" font-family="Times,serif" font-size="13.00">Date: Aug 31 2017 &#45; 12:07</text>
<text text-anchor="start" x="8" y="-107.6" font-family="Times,serif" font-size="13.00">Migration version: 20170831145340</text>
<text text-anchor="start" x="8" y="-93.6" font-family="Times,serif" font-size="13.00">Generated by RailRoady 1.5.3</text>
<text text-anchor="start" x="8" y="-79.6" font-family="Times,serif" font-size="13.00">http://railroady.prestonlee.com</text>
</g>
<!-- Usuario -->
<g id="node2" class="node"><title>Usuario</title>
<ellipse fill="none" stroke="black" cx="270" cy="-111" rx="38.1938" ry="18"/>
<text text-anchor="middle" x="270" y="-107.3" font-family="Times,serif" font-size="14.00">Usuario</text>
</g>
<!-- ApplicationRecord -->
<g id="node3" class="node"><title>ApplicationRecord</title>
<ellipse fill="none" stroke="black" cx="404" cy="-111" rx="77.1866" ry="18"/>
<text text-anchor="middle" x="404" y="-107.3" font-family="Times,serif" font-size="14.00">ApplicationRecord</text>
</g>
<!-- Categorium -->
<g id="node4" class="node"><title>Categorium</title>
<ellipse fill="none" stroke="black" cx="552" cy="-111" rx="52.7911" ry="18"/>
<text text-anchor="middle" x="552" y="-107.3" font-family="Times,serif" font-size="14.00">Categorium</text>
</g>
<!-- Item -->
<g id="node6" class="node"><title>Item</title>
<ellipse fill="none" stroke="black" cx="601" cy="-18" rx="27.0966" ry="18"/>
<text text-anchor="middle" x="601" y="-14.3" font-family="Times,serif" font-size="14.00">Item</text>
</g>
<!-- Categorium&#45;&gt;Item -->
<g id="edge1" class="edge"><title>Categorium&#45;&gt;Item</title>
<path fill="none" stroke="#848a86" d="M565.224,-85.4406C572.148,-72.5819 580.609,-56.8694 587.564,-43.9532"/>
<ellipse fill="none" stroke="#848a86" cx="563.113" cy="-89.3617" rx="4.00002" ry="4.00002"/>
<polygon fill="#848a86" stroke="#848a86" points="587.577,-43.9279 596.28,-37.2567 589.948,-39.5256 592.318,-35.1232 592.318,-35.1232 592.318,-35.1232 589.948,-39.5256 588.356,-32.9897 587.577,-43.9279 587.577,-43.9279"/>
</g>
<!-- User -->
<g id="node5" class="node"><title>User</title>
<ellipse fill="none" stroke="black" cx="650" cy="-111" rx="27.0966" ry="18"/>
<text text-anchor="middle" x="650" y="-107.3" font-family="Times,serif" font-size="14.00">User</text>
</g>
<!-- User&#45;&gt;Item -->
<g id="edge2" class="edge"><title>User&#45;&gt;Item</title>
<path fill="none" stroke="#fe042a" d="M637.218,-86.2615C630.244,-73.3098 621.613,-57.281 614.526,-44.1198"/>
<ellipse fill="none" stroke="#fe042a" cx="639.343" cy="-90.2091" rx="4.00002" ry="4.00002"/>
<polygon fill="#fe042a" stroke="#fe042a" points="614.425,-43.9329 613.647,-32.9947 612.055,-39.5305 609.684,-35.1281 609.684,-35.1281 609.684,-35.1281 612.055,-39.5305 605.722,-37.2616 614.425,-43.9329 614.425,-43.9329"/>
</g>
</g>
</svg>
